<svg width="25" height="25" viewBox="0 0 25 25" fill="none" xmlns="http://www.w3.org/2000/svg">
<path d="M19.4313 18.3281L22.4828 21.3781C22.6251 21.5255 22.7039 21.7228 22.7021 21.9277C22.7003 22.1325 22.6181 22.3284 22.4733 22.4733C22.3284 22.6181 22.1325 22.7003 21.9277 22.7021C21.7228 22.7039 21.5255 22.6251 21.3781 22.4828L18.3266 19.4313C16.3324 21.1398 13.7541 22.0095 11.1325 21.858C8.51097 21.7064 6.05 20.5454 4.26602 18.6185C2.48204 16.6916 1.51372 14.1486 1.56426 11.5232C1.6148 8.89772 2.68026 6.39389 4.53707 4.53708C6.39389 2.68026 8.89772 1.6148 11.5232 1.56426C14.1486 1.51372 16.6916 2.48204 18.6185 4.26602C20.5454 6.05 21.7064 8.51097 21.858 11.1325C22.0095 13.7541 21.1398 16.3324 19.4313 18.3266V18.3281ZM11.7188 20.3125C13.998 20.3125 16.1838 19.4071 17.7955 17.7955C19.4071 16.1838 20.3125 13.998 20.3125 11.7188C20.3125 9.43955 19.4071 7.2537 17.7955 5.64206C16.1838 4.03042 13.998 3.125 11.7188 3.125C9.43955 3.125 7.25369 4.03042 5.64205 5.64206C4.03041 7.2537 3.125 9.43955 3.125 11.7188C3.125 13.998 4.03041 16.1838 5.64205 17.7955C7.25369 19.4071 9.43955 20.3125 11.7188 20.3125Z" fill="white"/>
</svg>
